<?xml version="1.0" standalone="no"?>
<!DOCTYPE svg PUBLIC "-//W3C//DTD SVG 20010904//EN"
 "http://www.w3.org/TR/2001/REC-SVG-20010904/DTD/svg10.dtd">
<svg version="1.0" xmlns="http://www.w3.org/2000/svg"
 width="100.000000pt" height="100.000000pt" viewBox="0 0 100.000000 100.000000"
 preserveAspectRatio="xMidYMid meet">
<metadata>
Created by potrace 1.15, written by Peter Selinger 2001-2017
</metadata>
<g transform="translate(0.000000,100.000000) scale(0.100000,-0.100000)"
fill="#000000" stroke="none">
<path d="M387 800 c-125 -48 -196 -156 -204 -307 -4 -72 -1 -99 15 -146 29
-80 80 -140 150 -174 50 -25 67 -28 147 -27 54 0 106 7 130 16 36 13 40 19 43
52 l3 37 -29 -15 c-70 -36 -193 -37 -261 -2 -41 22 -96 89 -109 135 -15 48
-15 163 -2 213 15 53 68 119 118 146 68 38 177 40 266 6 15 -6 17 -1 14 32 -4
47 -17 52 -143 53 -65 0 -103 -5 -138 -19z"/>
<path d="M430 465 l0 -225 25 0 25 0 0 105 0 105 80 0 c73 0 80 2 80 20 0 18
-7 20 -80 20 l-80 0 0 80 0 80 85 0 c78 0 85 2 85 20 0 19 -7 20 -110 20
l-110 0 0 -225z"/>
</g>
</svg>
